<?xml version="1.0" encoding="iso-8859-1"?>
<!-- Generator: Adobe Illustrator 19.0.0, SVG Export Plug-In . SVG Version: 6.00 Build 0)  -->
<svg version="1.1" id="Layer_1" xmlns="http://www.w3.org/2000/svg" xmlns:xlink="http://www.w3.org/1999/xlink" x="0px" y="0px"
	 viewBox="0 0 512 512" style="enable-background:new 0 0 512 512;" xml:space="preserve">
<g>
	<g>
		<path d="M495.304,178.087h-22.708L410.29,43.09c-2.73-5.912-8.647-9.699-15.16-9.699h-55.652v-5.565
			C339.478,12.483,326.995,0,311.652,0H200.348c-15.343,0-27.826,12.483-27.826,27.826v5.565H116.87
			c-6.512,0-12.429,3.787-15.16,9.699L39.404,178.087H16.696C7.475,178.087,0,185.562,0,194.783v66.783
			c0,9.22,7.475,16.696,16.696,16.696h16.696v183.652C33.391,489.531,55.86,512,83.478,512h345.043
			c27.618,0,50.087-22.469,50.087-50.087V278.261h16.696c9.22,0,16.696-7.475,16.696-16.696v-66.783
			C512,185.562,504.525,178.087,495.304,178.087z M205.913,33.391h100.174v33.391H205.913V33.391z M127.553,66.783h44.969v5.565
			c0,15.343,12.483,27.826,27.826,27.826h111.304c15.343,0,27.826-12.483,27.826-27.826v-5.565h44.969l51.371,111.304H76.181
			L127.553,66.783z M445.217,461.913c0,9.206-7.49,16.696-16.696,16.696H83.478c-9.206,0-16.696-7.49-16.696-16.696V278.261h378.435
			V461.913z M478.609,244.87c-4.221,0-425.165,0-428.522,0H33.391v-33.391h16.696c3.372,0,424.322,0,428.522,0V244.87z"/>
	</g>
</g>
<g>
	<g>
		<path d="M122.435,311.652c-9.22,0-16.696,7.475-16.696,16.696v100.174c0,9.22,7.475,16.696,16.696,16.696
			c9.22,0,16.696-7.475,16.696-16.696V328.348C139.13,319.127,131.655,311.652,122.435,311.652z"/>
	</g>
</g>
<g>
	<g>
		<path d="M189.217,311.652c-9.22,0-16.696,7.475-16.696,16.696v100.174c0,9.22,7.475,16.696,16.696,16.696
			s16.696-7.475,16.696-16.696V328.348C205.913,319.127,198.438,311.652,189.217,311.652z"/>
	</g>
</g>
<g>
	<g>
		<path d="M256,311.652c-9.22,0-16.696,7.475-16.696,16.696v100.174c0,9.22,7.475,16.696,16.696,16.696
			c9.22,0,16.696-7.475,16.696-16.696V328.348C272.696,319.127,265.22,311.652,256,311.652z"/>
	</g>
</g>
<g>
	<g>
		<path d="M322.783,311.652c-9.22,0-16.696,7.475-16.696,16.696v100.174c0,9.22,7.475,16.696,16.696,16.696
			s16.696-7.475,16.696-16.696V328.348C339.478,319.127,332.003,311.652,322.783,311.652z"/>
	</g>
</g>
<g>
	<g>
		<path d="M389.565,311.652c-9.22,0-16.696,7.475-16.696,16.696v100.174c0,9.22,7.475,16.696,16.696,16.696
			c9.22,0,16.696-7.475,16.696-16.696V328.348C406.261,319.127,398.786,311.652,389.565,311.652z"/>
	</g>
</g>
</svg>
