<svg xmlns="http://www.w3.org/2000/svg" width="24px" height="24px" viewBox="0 0 24 24" version="1.1" role="img">
    <g stroke="none" stroke-width="1" fill="#fcfe31" fill-rule="evenodd">
        <path d="M13.785,-0.444444444 C13.785,-0.444444444 14.52,2.54055556 14.52,4.95555556 C14.52,7.28055556 13.005,9.15555556 10.68,9.15555556 C8.355,9.15555556 6.6,7.28055556 6.6,4.95555556 L6.63,4.55055556 C4.365,7.26555556 3,10.7455556 3,14.5555556 C3,19.5205556 7.035,23.5555556 12,23.5555556 C16.965,23.5555556 21,19.5205556 21,14.5555556 C21,8.48055556 18.18,3.08055556 13.785,-0.444444444 Z M11.6179402,20.5555556 C9.61461794,20.5555556 8,18.9694528 8,17.0057066 C8,15.1628063 9.16611296,13.8788184 11.154485,13.4709634 C13.1428571,13.0631084 15.1910299,12.0963411 16.3272425,10.5555556 C16.7607973,12.0208124 17,13.5615979 17,15.1325948 C17,18.1235314 14.5780731,20.5555556 11.6179402,20.5555556 L11.6179402,20.5555556 Z" fill="#e65722"/>
    </g>
</svg>